HIERARCHY
ROOT Hips
{
	OFFSET 0.00000 0.00000 0.00000
	CHANNELS 6 Xposition Yposition Zposition Zrotation Yrotation Xrotation 
	JOINT LHipJoint
	{
		OFFSET 0 0 0
		CHANNELS 3 Zrotation Yrotation Xrotation
		JOINT LeftUpLeg
		{
			OFFSET 1.81638 -1.86202 0.89635
			CHANNELS 3 Zrotation Yrotation Xrotation
			JOINT LeftLeg
			{
				OFFSET 2.63464 -7.23861 0.00000
				CHANNELS 3 Zrotation Yrotation Xrotation
				JOINT LeftFoot
				{
					OFFSET 2.45871 -6.75336 0.00000
					CHANNELS 3 Zrotation Yrotation Xrotation
					JOINT LeftToeBase
					{
						OFFSET 0.34235 -0.94059 2.20020
						CHANNELS 3 Zrotation Yrotation Xrotation
						End Site
						{
							OFFSET 0.00000 -0.00000 1.18611
						}
					}
				}
			}
		}
	}
	JOINT RHipJoint
	{
		OFFSET 0 0 0
		CHANNELS 3 Zrotation Yrotation Xrotation
		JOINT RightUpLeg
		{
			OFFSET -1.84405 -1.86203 0.89635
			CHANNELS 3 Zrotation Yrotation Xrotation
			JOINT RightLeg
			{
				OFFSET -2.71067 -7.44751 0.00000
				CHANNELS 3 Zrotation Yrotation Xrotation
				JOINT RightFoot
				{
					OFFSET -2.47159 -6.79060 0.00000
					CHANNELS 3 Zrotation Yrotation Xrotation
					JOINT RightToeBase
					{
						OFFSET -0.26223 -0.72048 2.36007
						CHANNELS 3 Zrotation Yrotation Xrotation
						End Site
						{
							OFFSET -0.00000 -0.00000 1.23343
						}
					}
				}
			}
		}
	}
	JOINT LowerBack
	{
		OFFSET 0 0 0
		CHANNELS 3 Zrotation Yrotation Xrotation
		JOINT Spine
		{
			OFFSET 0.02089 1.99248 -0.22512
			CHANNELS 3 Zrotation Yrotation Xrotation
			JOINT Spine1
			{
				OFFSET 0.01476 2.01356 -0.03079
				CHANNELS 3 Zrotation Yrotation Xrotation
				JOINT Neck
				{
					OFFSET 0 0 0
					CHANNELS 3 Zrotation Yrotation Xrotation
					JOINT Neck1
					{
						OFFSET 0.04846 1.65098 0.06663
						CHANNELS 3 Zrotation Yrotation Xrotation
						JOINT Head
						{
							OFFSET -0.06061 1.60634 -0.07565
							CHANNELS 3 Zrotation Yrotation Xrotation
							End Site
							{
								OFFSET -0.02954 1.73562 -0.03642
							}
						}
					}
				}
				JOINT LeftShoulder
				{
					OFFSET 0 0 0
					CHANNELS 3 Zrotation Yrotation Xrotation
					JOINT LeftArm
					{
						OFFSET 3.45234 1.47051 -0.06993
						CHANNELS 3 Zrotation Yrotation Xrotation
						JOINT LeftForeArm
						{
							OFFSET 5.49313 -0.00000 0.00000
							CHANNELS 3 Zrotation Yrotation Xrotation
							JOINT LeftHand
							{
								OFFSET 3.29037 -0.00000 0.00000
								CHANNELS 3 Zrotation Yrotation Xrotation
								JOINT LeftFingerBase
								{
									OFFSET 0 0 0
									CHANNELS 3 Zrotation Yrotation Xrotation
									JOINT LeftHandIndex1
									{
										OFFSET 0.72966 -0.00000 0.00000
										CHANNELS 3 Zrotation Yrotation Xrotation
										End Site
										{
											OFFSET 0.58827 -0.00000 0.00000
										}
									}
								}
								JOINT LThumb
								{
									OFFSET 0 0 0
									CHANNELS 3 Zrotation Yrotation Xrotation
									End Site
									{
										OFFSET 0.59725 -0.00000 0.59725
									}
								}
							}
						}
					}
				}
				JOINT RightShoulder
				{
					OFFSET 0 0 0
					CHANNELS 3 Zrotation Yrotation Xrotation
					JOINT RightArm
					{
						OFFSET -3.41935 1.44327 0.20453
						CHANNELS 3 Zrotation Yrotation Xrotation
						JOINT RightForeArm
						{
							OFFSET -5.23684 -0.00000 0.00000
							CHANNELS 3 Zrotation Yrotation Xrotation
							JOINT RightHand
							{
								OFFSET -3.38251 -0.00000 0.00000
								CHANNELS 3 Zrotation Yrotation Xrotation
								JOINT RightFingerBase
								{
									OFFSET 0 0 0
									CHANNELS 3 Zrotation Yrotation Xrotation
									JOINT RightHandIndex1
									{
										OFFSET -0.69145 -0.00000 0.00000
										CHANNELS 3 Zrotation Yrotation Xrotation
										End Site
										{
											OFFSET -0.55747 -0.00000 0.00000
										}
									}
								}
								JOINT RThumb
								{
									OFFSET 0 0 0
									CHANNELS 3 Zrotation Yrotation Xrotation
									End Site
									{
										OFFSET -0.56598 -0.00000 0.56598
									}
								}
							}
						}
					}
				}
			}
		}
	}
}
MOTION
Frames: 6
Frame Time: .0083333
9.9245 20.5163 0.3374 179.6380 75.1881 192.9970 0.0000 0.0000 0.0000 -9.3096 -8.7767 -62.8872 10.1857 17.5130 60.1073 -1.4052 -21.1172 13.8760 0.8362 -5.8334 -16.3018 0.0000 0.0000 0.0000 6.3939 15.8609 -37.4918 -3.0209 -10.7287 31.3704 0.0543 -8.2077 4.5672 -0.4327 4.2213 -11.7002 -1.3822 0.3470 34.3373 0.2790 1.4880 10.7518 0.4518 1.2793 -5.6119 5.4621 -2.6496 -0.8376 -5.8164 -3.5608 0.0166 -2.7971 -1.7820 -0.0674 0.0000 0.0000 0.0000 -71.6722 4.9391 24.6225 32.7787 -43.1592 -13.2704 -0.0000 -0.0000 5.2731 5.6875 4.1867 0.4166 -7.1250 0.0000 -0.0000 -17.0413 33.7913 4.8689 0.0000 0.0000 0.0000 75.4638 -14.0370 22.8857 -32.6436 43.0543 -13.1781 0.0000 -0.0000 -0.3870 -22.6619 -23.1076 9.3060 7.1250 -0.0000 -0.0000 6.8647 -54.6645 -1.6356
10.1654 20.2491 0.3502 180.4590 74.6922 193.5790 0.0000 0.0000 0.0000 -10.1318 -8.5182 -61.6954 9.1417 16.8981 56.5790 -1.2740 -20.4433 14.4090 0.8176 -5.7697 -16.1175 0.0000 0.0000 0.0000 7.2392 15.5569 -36.2420 -2.7098 -10.2098 29.6587 0.0730 -9.6100 5.3788 -0.3371 3.7309 -10.3207 -1.0877 0.2420 33.8769 0.3158 1.4432 10.7080 0.3583 1.2554 -5.4905 5.4133 -2.6897 -1.0936 -5.7042 -3.6197 0.2130 -2.7564 -1.8152 0.0385 -0.0000 -0.0000 0.0000 -71.9555 6.1824 24.6260 32.6280 -43.0421 -13.1675 -0.0000 -0.0000 5.5599 5.3657 3.9468 0.3704 -7.1250 0.0000 -0.0000 -17.2469 33.5465 5.0396 -0.0000 -0.0000 0.0000 75.7417 -15.3956 23.1624 -32.7980 43.1742 -13.2836 0.0000 -0.0000 -0.7222 -21.9334 -23.0943 8.9755 7.1250 -0.0000 -0.0000 7.6155 -54.5067 -1.7866
10.4065 19.9682 0.3607 181.3740 74.2241 194.1290 0.0000 0.0000 0.0000 -10.8530 -8.2243 -60.4209 8.2660 16.3115 53.5154 -1.1475 -19.7556 14.7980 0.7994 -5.7066 -15.9356 0.0000 0.0000 0.0000 8.2027 15.1399 -35.0113 -2.5006 -9.8389 28.4567 0.0874 -10.8311 6.1608 -0.2587 3.2723 -9.0378 -0.7647 0.1271 33.0956 0.3367 1.3999 11.0587 0.2603 1.2343 -5.4184 5.3425 -2.7147 -1.3518 -5.5761 -3.6586 0.4061 -2.7068 -1.8382 0.1457 -0.0000 0.0000 0.0000 -72.2322 7.4927 24.5048 32.5395 -42.9731 -13.1071 -0.0000 -0.0000 5.7322 5.0846 3.7420 0.3327 -7.1250 0.0000 -0.0000 -17.4268 33.3377 5.1890 -0.0000 0.0000 0.0000 75.9544 -16.7679 23.4439 -32.9557 43.2960 -13.3917 0.0000 -0.0000 -1.0002 -21.2069 -23.0733 8.6465 7.1250 -0.0000 -0.0000 8.3571 -54.3431 -1.9289
10.6462 19.6745 0.3693 182.3220 73.7836 194.5900 0.0000 0.0000 0.0000 -11.4411 -7.9473 -59.0608 7.5471 15.7758 50.9145 -1.0217 -19.0507 15.1519 0.7775 -5.6299 -15.7142 0.0000 0.0000 0.0000 9.2402 14.6300 -33.7551 -2.3733 -9.6038 27.7030 0.0982 -11.4976 6.5471 -0.1962 2.8523 -7.8679 -0.4421 0.0223 32.7996 0.3742 1.3566 10.9796 0.1356 1.2129 -5.3757 5.2533 -2.7261 -1.6124 -5.4386 -3.6792 0.6052 -2.6516 -1.8518 0.2567 -0.0000 0.0000 0.0000 -72.4979 8.8399 24.2707 32.4818 -42.9279 -13.0678 -0.0000 -0.0000 5.8007 4.8139 3.5814 0.3014 -7.1250 0.0000 -0.0000 -17.6069 33.1722 5.3212 -0.0000 0.0000 0.0000 76.0984 -18.1453 23.7116 -33.1066 43.4118 -13.4953 0.0000 -0.0000 -1.2248 -20.5200 -23.0497 8.3369 7.1250 -0.0000 -0.0000 9.0528 -54.1860 -2.0567
10.8860 19.3565 0.3760 183.2310 73.3760 194.9050 0.0000 0.0000 0.0000 -11.8584 -7.7484 -57.6632 6.9860 15.3201 48.8214 -0.8988 -18.3600 15.5310 0.7534 -5.5439 -15.4667 0.0000 0.0000 0.0000 10.2970 14.0438 -32.4933 -2.3298 -9.5217 27.4415 0.0963 -11.2313 6.3501 -0.1572 2.5545 -7.0407 -0.1405 -0.0762 32.5757 0.4122 1.3143 10.8943 0.0213 1.1921 -5.3717 5.1533 -2.7234 -1.8627 -5.3106 -3.6803 0.7926 -2.5976 -1.8554 0.3632 -0.0000 -0.0000 0.0000 -72.7577 10.1936 23.9384 32.4247 -42.8832 -13.0289 -0.0000 -0.0000 5.7481 4.5622 3.4566 0.2756 -7.1250 0.0000 -0.0000 -17.7788 33.0420 5.4366 -0.0000 -0.0000 0.0000 76.1656 -19.5111 23.9486 -33.2455 43.5179 -13.5908 0.0000 -0.0000 -1.3989 -19.9052 -23.0281 8.0621 7.1250 -0.0000 -0.0000 9.6721 -54.0462 -2.1662
11.1163 19.0437 0.3825 184.0860 73.0030 195.0720 0.0000 0.0000 0.0000 -12.1152 -7.6701 -56.1171 6.5404 14.9323 47.1137 -0.7796 -17.7076 15.9718 0.7264 -5.4457 -15.1843 0.0000 0.0000 0.0000 11.3177 13.4784 -31.2040 -2.3644 -9.5871 27.6497 0.0818 -9.9312 5.4856 -0.1522 2.5140 -6.9284 0.1301 -0.1635 32.4220 0.4550 1.2777 10.8037 -0.0730 1.1737 -5.4048 5.0403 -2.7104 -2.0717 -5.1944 -3.6667 0.9328 -2.5442 -1.8509 0.4484 -0.0000 0.0000 0.0000 -73.0124 11.5168 23.5283 32.3344 -42.8122 -12.9675 -0.0000 -0.0000 5.6075 4.2929 3.3830 0.2538 -7.1250 0.0000 -0.0000 -17.9744 32.9603 5.5392 -0.0000 0.0000 0.0000 76.1539 -20.8491 24.1405 -33.3611 43.6058 -13.6705 0.0000 -0.0000 -1.5476 -19.3789 -23.0149 7.8302 7.1250 -0.0000 -0.0000 10.2021 -53.9329 -2.2584
